<svg xmlns="http://www.w3.org/2000/svg" xmlns:xlink="http://www.w3.org/1999/xlink" width="95" height="133" viewBox="0 0 95 133"><defs><path id="zxjbb" d="M1138.105 1023.999s1.607 1.216 1.69 3.574c.082 2.357-.56 17.575-.56 17.575s14.43-17 18.606-22.283c3.442-4.355 4.047-12.56-2.132-17.858-6.178-5.3-17.604 18.992-17.604 18.992z"/><path id="zxjbc" d="M1108.958 1007.171s-1.857-.783-3.94.324-14.94 9.271-14.94 9.271 7.507-20.996 9.994-27.254c2.05-5.158 8.853-9.784 16.531-7.083 7.678 2.7-7.645 24.742-7.645 24.742z"/><path id="zxjbd" d="M1116.08 1012.149l13.856 8a3.5 3.5 0 0 1-3.5 6.062l-13.857-8a3.5 3.5 0 1 1 3.5-6.062z"/><path id="zxjbe" d="M1119.806 1024.693a8 8 0 0 1 2.929 10.928c-2.21 3.826-17.076 13.518-17.076 13.518s1.01-17.692 3.22-21.518a8 8 0 0 1 10.927-2.928z"/><path id="zxjba" d="M1181.498 920.566c-.6-1.811-1.01-3.432-.913-3.6.097-.167.13-.298.076-.29-.055.009-.492-.04-.549-.185-.056-.145-.185-.121-.285.053-.1.174-1.706.662-3.567 1.084 0 0-35.111 7.963-50.811 36.715-17.466 31.987-16.15 53.78-16.15 53.78-.038 1.908 1.283 4.249 2.936 5.204l5.78 3.337a13293.496 13293.496 0 0 1 6.762 3.903l6.139 3.545c1.653.954 4.36.959 6.016.01 0 0 18.56-10.363 37.528-41.482 17.083-28.027 7.038-62.074 7.038-62.074z"/><path id="zxjbg" d="M1181.44 915.94l25.115 14.5-61 105.654-25.115-14.5z"/><path id="zxjbh" d="M1182.952 913.322l15.6 8.981-13 22.517s-6.806-6.053-14.617-10.685z"/><path id="zxjbi" d="M1170.935 934.135c-.232-.138-.462-.279-.696-.413-7.92-4.573-16.73-7.402-16.73-7.402l12.977-22.478 16.466 9.48z"/><path id="zxjbj" d="M1160.99 950.361c7.875 4.547 10.573 14.616 6.026 22.492-4.546 7.875-14.616 10.573-22.491 6.026-7.875-4.546-10.573-14.617-6.027-22.492 4.547-7.875 14.617-10.573 22.492-6.026z"/><path id="zxjbk" d="M1159.007 953.795c5.979 3.452 8.027 11.097 4.576 17.075-3.452 5.979-11.097 8.027-17.076 4.575-5.978-3.451-8.027-11.096-4.575-17.075 3.452-5.978 11.097-8.027 17.075-4.575z"/><clipPath id="zxjbf"><use xlink:href="#zxjba"/></clipPath></defs><g><g transform="translate(-1090 -916)"><g><use fill="#3a6da5" xlink:href="#zxjbb"/></g><g><use fill="#487fbc" xlink:href="#zxjbc"/></g><g><use fill="#d97475" xlink:href="#zxjbd"/></g><g><use fill="#f1c40f" xlink:href="#zxjbe"/></g><g><use fill="#daeaf2" xlink:href="#zxjba"/></g><g clip-path="url(#zxjbf)"><use fill="#bedae8" xlink:href="#zxjbg"/></g><g clip-path="url(#zxjbf)"><use fill="#d84848" xlink:href="#zxjbh"/></g><g clip-path="url(#zxjbf)"><use fill="#f57b71" xlink:href="#zxjbi"/></g><g><use fill="#fff" xlink:href="#zxjbj"/></g><g><use fill="#5ad2eb" xlink:href="#zxjbk"/></g></g></g></svg>